<?xml version="1.0" encoding="UTF-8" standalone="no"?>
<!DOCTYPE svg PUBLIC "-//W3C//DTD SVG 1.1//EN" "http://www.w3.org/Graphics/SVG/1.1/DTD/svg11.dtd">
<svg width="100%" height="100%" viewBox="0 0 1000 1000" version="1.1" xmlns="http://www.w3.org/2000/svg" xmlns:xlink="http://www.w3.org/1999/xlink" xml:space="preserve" xmlns:serif="http://www.serif.com/" style="fill-rule:evenodd;clip-rule:evenodd;stroke-linejoin:round;stroke-miterlimit:2;">
    <g transform="matrix(1,0,0,1,-10504,0)">
        <rect id="eye_open" x="10504" y="0" width="1000" height="1000" style="fill:none;"/>
        <clipPath id="_clip1">
            <rect id="eye_open1" serif:id="eye_open" x="10504" y="0" width="1000" height="1000"/>
        </clipPath>
        <g clip-path="url(#_clip1)">
            <g transform="matrix(25.5458,0,0,25.5458,-136146,-2863.9)">
                <g transform="matrix(1,0,0,1,-4870.4,-14336.7)">
                    <path d="M10611.1,14468.4C10615,14461.6 10622.3,14457.1 10630.6,14457.1C10639,14457.1 10646.3,14461.6 10650.2,14468.4C10646.3,14475.1 10639,14479.7 10630.6,14479.7C10622.3,14479.7 10615,14475.1 10611.1,14468.4ZM10617.1,14468.4C10620.4,14472.2 10625.2,14474.7 10630.6,14474.7C10636,14474.7 10640.9,14472.2 10644.1,14468.4C10640.9,14464.5 10636,14462.1 10630.6,14462.1C10625.2,14462.1 10620.4,14464.5 10617.1,14468.4Z"/>
                </g>
                <g transform="matrix(1,0,0,1,-4870.49,-14337)">
                    <circle cx="10630.7" cy="14468.7" r="3.543"/>
                    <path d="M10630.7,14465.1C10632.7,14465.1 10634.3,14466.7 10634.3,14468.7C10634.3,14470.6 10632.7,14472.2 10630.7,14472.2C10628.8,14472.2 10627.2,14470.6 10627.2,14468.7C10627.2,14466.7 10628.8,14465.1 10630.7,14465.1ZM10630.7,14470.1C10631.5,14470.1 10632.2,14469.5 10632.2,14468.7C10632.2,14467.9 10631.5,14467.2 10630.7,14467.2C10629.9,14467.2 10629.3,14467.9 10629.3,14468.7C10629.3,14469.5 10629.9,14470.1 10630.7,14470.1Z"/>
                </g>
            </g>
        </g>
    </g>
</svg>
